<?xml version="1.0" encoding="UTF-8"?>
<!-- Generator: visioncortex VTracer -->
<svg id="svg" version="1.1" xmlns="http://www.w3.org/2000/svg" style="display: block;" viewBox="0 0 64 32"><path d="M0,0 L64,0 L64,32 L0,32 Z " transform="translate(0,0)" style="fill: #CBD6D3;"/><path d="M0,0 L24,0 L24,24 L-12,24 L-12,17 L-11,17 L-11,16 L-12,16 L-12,6 L0,6 Z " transform="translate(38,4)" style="fill: #FF8B8B;"/><path d="M0,0 L12,0 L12,18 L0,18 L0,11 L1,11 L1,10 L0,10 Z " transform="translate(26,10)" style="fill: #FFE27F;"/><path d="M0,0 L12,0 L12,12 L0,12 Z " transform="translate(2,18)" style="fill: #FF8B8B;"/><path d="M0,0 L12,0 L12,12 L0,12 L0,11 L1,11 L1,10 L0,10 Z " transform="translate(2,2)" style="fill: #FF8B8B;"/><path d="M0,0 L12,0 L12,6 L0,6 Z " transform="translate(26,4)" style="fill: #FFE27F;"/><path d="M0,0 L9,0 L9,5 L5,5 L5,6 L9,6 L9,7 L5,7 L5,8 L10,8 L10,9 L9,9 L9,10 L8,10 L8,9 L6,9 L6,10 L5,10 L5,9 L3,9 L3,10 L2,10 L2,9 L1,9 L1,10 L0,10 L0,9 L-1,9 L-1,8 L4,8 L4,7 L0,7 L0,6 L4,6 L4,5 L0,5 Z " transform="translate(27,11)" style="fill: #000000;"/><path d="M0,0 L9,0 L9,5 L5,5 L5,6 L9,6 L9,7 L5,7 L5,8 L10,8 L10,9 L9,9 L9,10 L8,10 L8,9 L6,9 L6,10 L5,10 L5,9 L3,9 L3,10 L2,10 L2,9 L1,9 L1,10 L0,10 L0,9 L-1,9 L-1,8 L4,8 L4,7 L0,7 L0,6 L4,6 L4,5 L0,5 Z " transform="translate(3,3)" style="fill: #000000;"/><path d="M0,0 L8,0 L8,2 L2,2 L2,6 L8,6 L8,8 L2,8 L2,14 L8,14 L8,16 L0,16 Z " transform="translate(38,8)" style="fill: #000000;"/><path d="M0,0 L12,0 L12,12 L4,12 L4,10 L6,10 L6,11 L7,11 L7,10 L9,10 L9,11 L10,11 L10,10 L11,10 L11,9 L6,9 L6,8 L10,8 L10,7 L6,7 L6,6 L10,6 L10,1 L1,1 L1,6 L5,6 L5,7 L1,7 L1,8 L5,8 L5,9 L0,9 Z " transform="translate(26,10)" style="fill: #FF8B8B;"/><path d="M0,0 L2,0 L2,4 L8,4 L8,6 L2,6 L2,14 L8,14 L8,16 L0,16 Z " transform="translate(50,8)" style="fill: #000000;"/><path d="M0,0 L6,0 L6,8 L0,8 Z " transform="translate(52,14)" style="fill: #FF8B8B;"/><path d="M0,0 L6,0 L6,6 L0,6 Z " transform="translate(40,16)" style="fill: #FF8B8B;"/><path d="M0,0 L1,0 L1,2 L5,2 L5,1 L6,1 L6,0 L7,0 L7,4 L-5,4 L-5,2 L-1,2 L-1,1 L0,1 Z " transform="translate(7,26)" style="fill: #FF8B8B;"/><path d="M0,0 L1,0 L1,1 L3,1 L3,2 L4,2 L4,4 L5,4 L5,6 L4,6 L4,7 L3,7 L3,8 L2,8 L2,9 L-1,9 L-1,8 L1,8 L1,5 L-5,5 L-5,4 L3,4 L3,3 L1,3 L1,2 L0,2 Z " transform="translate(20,12)" style="fill: #555A58;"/><path d="M0,0 L10,0 L10,1 L1,1 L1,6 L5,6 L5,7 L1,7 L1,8 L5,8 L5,9 L0,9 Z " transform="translate(26,10)" style="fill: #FF8B8B;"/><path d="M0,0 L10,0 L10,1 L1,1 L1,6 L5,6 L5,7 L1,7 L1,8 L5,8 L5,9 L0,9 Z " transform="translate(2,2)" style="fill: #FF8B8B;"/><path d="M0,0 L6,0 L6,4 L0,4 Z " transform="translate(40,10)" style="fill: #FF8B8B;"/><path d="M0,0 L5,0 L5,1 L1,1 L1,2 L6,2 L6,3 L5,3 L5,4 L4,4 L4,3 L2,3 L2,4 L1,4 L1,3 L-1,3 L-1,4 L-2,4 L-2,3 L-3,3 L-3,4 L-4,4 L-4,3 L-5,3 L-5,2 L0,2 Z " transform="translate(31,17)" style="fill: #000000;"/><path d="M0,0 L5,0 L5,1 L1,1 L1,2 L6,2 L6,3 L5,3 L5,4 L4,4 L4,3 L2,3 L2,4 L1,4 L1,3 L-1,3 L-1,4 L-2,4 L-2,3 L-3,3 L-3,4 L-4,4 L-4,3 L-5,3 L-5,2 L0,2 Z " transform="translate(7,9)" style="fill: #000000;"/><path d="M0,0 L4,0 L4,1 L1,1 L1,3 L4,3 L4,4 L1,4 L1,7 L4,7 L4,8 L0,8 Z " transform="translate(2,20)" style="fill: #000000;"/><path d="M0,0 L2,0 L2,8 L0,8 Z " transform="translate(58,14)" style="fill: #000000;"/><path d="M0,0 L1,0 L1,2 L4,2 L4,3 L1,3 L1,7 L4,7 L4,8 L0,8 Z " transform="translate(8,20)" style="fill: #000000;"/><path d="M0,0 L5,0 L5,5 L2,5 L2,4 L4,4 L4,1 L1,1 L1,3 L0,3 Z " transform="translate(31,11)" style="fill: #000000;"/><path d="M0,0 L5,0 L5,5 L2,5 L2,4 L4,4 L4,1 L1,1 L1,3 L0,3 Z " transform="translate(7,3)" style="fill: #000000;"/><path d="M0,0 L3,0 L3,4 L0,4 Z " transform="translate(9,23)" style="fill: #FF8B8B;"/><path d="M0,0 L2,0 L2,6 L0,6 Z " transform="translate(46,16)" style="fill: #000000;"/><path d="M0,0 L1,0 L1,1 L2,1 L2,0 L4,0 L4,1 L6,1 L6,2 L-2,2 L-2,1 L0,1 Z " transform="translate(4,12)" style="fill: #FF8B8B;"/><path d="M0,0 L3,0 L3,3 L0,3 Z " transform="translate(3,24)" style="fill: #FF8B8B;"/><path d="M0,0 L3,0 L3,3 L0,3 Z " transform="translate(32,12)" style="fill: #FF8B8B;"/><path d="M0,0 L3,0 L3,3 L0,3 Z " transform="translate(28,12)" style="fill: #FF8B8B;"/><path d="M0,0 L3,0 L3,3 L0,3 Z " transform="translate(8,4)" style="fill: #FF8B8B;"/><path d="M0,0 L3,0 L3,3 L0,3 Z " transform="translate(4,4)" style="fill: #FF8B8B;"/><path d="M0,0 L1,0 L1,4 L0,4 L0,5 L-1,5 L-1,1 L0,1 Z " transform="translate(7,22)" style="fill: #FF8B8B;"/><path d="M0,0 L2,0 L2,4 L0,4 Z " transform="translate(46,10)" style="fill: #000000;"/><path d="M0,0 L7,0 L7,1 L0,1 Z " transform="translate(15,16)" style="fill: #585D5B;"/><path d="M0,0 L3,0 L3,2 L0,2 Z " transform="translate(3,21)" style="fill: #FF8B8B;"/><path d="M0,0 L2,0 L2,1 L4,1 L4,2 L0,2 Z " transform="translate(30,20)" style="fill: #FF8B8B;"/><path d="M0,0 L1,0 L1,1 L3,1 L3,3 L1,3 L1,2 L0,2 Z " transform="translate(20,12)" style="fill: #626866;"/><path d="M0,0 L1,0 L1,1 L2,1 L2,2 L-2,2 L-2,1 L0,1 Z " transform="translate(4,12)" style="fill: #FF8B8B;"/><path d="M0,0 L1,0 L1,4 L0,4 Z " transform="translate(12,23)" style="fill: #000000;"/><path d="M0,0 L2,0 L2,2 L0,2 Z " transform="translate(32,12)" style="fill: #FF8B8B;"/><path d="M0,0 L2,0 L2,2 L0,2 Z " transform="translate(28,12)" style="fill: #FF8B8B;"/><path d="M0,0 L2,0 L2,2 L0,2 Z " transform="translate(8,4)" style="fill: #FF8B8B;"/><path d="M0,0 L2,0 L2,2 L0,2 Z " transform="translate(4,4)" style="fill: #FF8B8B;"/><path d="M0,0 L1,0 L1,3 L0,3 Z " transform="translate(6,24)" style="fill: #000000;"/><path d="M0,0 L1,0 L1,1 L0,1 Z M-2,1 L0,1 L0,2 L-2,2 Z " transform="translate(28,20)" style="fill: #FF8B8B;"/><path d="M0,0 L1,0 L1,2 L0,2 Z " transform="translate(6,21)" style="fill: #000000;"/><path d="M0,0 L2,0 L2,1 L0,1 Z " transform="translate(28,21)" style="fill: #FF8B8B;"/><path d="M0,0 L1,0 L1,2 L0,2 Z " transform="translate(21,17)" style="fill: #7E8684;"/><path d="M0,0 L1,0 L1,2 L0,2 Z " transform="translate(24,16)" style="fill: #7D8482;"/><path d="M0,0 L1,0 L1,2 L0,2 Z " transform="translate(23,16)" style="fill: #373A39;"/><path d="M0,0 L2,0 L2,1 L0,1 Z " transform="translate(15,16)" style="fill: #555A59;"/><path d="M0,0 L1,0 L1,2 L0,2 Z " transform="translate(22,13)" style="fill: #4B504F;"/><path d="M0,0 L2,0 L2,1 L0,1 Z " transform="translate(4,13)" style="fill: #FF8B8B;"/><path d="M0,0 L1,0 L1,1 L0,1 Z " transform="translate(36,21)" style="fill: #000000;"/><path d="M0,0 L1,0 L1,1 L0,1 Z " transform="translate(33,21)" style="fill: #000000;"/><path d="M0,0 L1,0 L1,1 L0,1 Z " transform="translate(30,21)" style="fill: #000000;"/><path d="M0,0 L1,0 L1,1 L0,1 Z " transform="translate(26,21)" style="fill: #000000;"/><path d="M0,0 L1,0 L1,1 L0,1 Z " transform="translate(26,20)" style="fill: #FF8B8B;"/><path d="M0,0 L1,0 L1,1 L0,1 Z " transform="translate(21,20)" style="fill: #707775;"/><path d="M0,0 L1,0 L1,1 L0,1 Z " transform="translate(19,20)" style="fill: #828987;"/><path d="M0,0 L1,0 L1,1 L0,1 Z " transform="translate(22,19)" style="fill: #808886;"/><path d="M0,0 L1,0 L1,1 L0,1 Z " transform="translate(23,18)" style="fill: #7E8583;"/><path d="M0,0 L1,0 L1,1 L0,1 Z " transform="translate(22,18)" style="fill: #5A5F5E;"/><path d="M0,0 L1,0 L1,1 L0,1 Z " transform="translate(21,17)" style="fill: #9EA6A4;"/><path d="M0,0 L1,0 L1,1 L0,1 Z " transform="translate(24,16)" style="fill: #878F8C;"/><path d="M0,0 L1,0 L1,1 L0,1 Z " transform="translate(15,16)" style="fill: #454948;"/><path d="M0,0 L1,0 L1,1 L0,1 Z " transform="translate(14,16)" style="fill: #939B99;"/><path d="M0,0 L1,0 L1,1 L0,1 Z " transform="translate(23,14)" style="fill: #828987;"/><path d="M0,0 L1,0 L1,1 L0,1 Z " transform="translate(21,14)" style="fill: #838A88;"/><path d="M0,0 L1,0 L1,1 L0,1 Z " transform="translate(33,13)" style="fill: #000000;"/><path d="M0,0 L1,0 L1,1 L0,1 Z " transform="translate(29,13)" style="fill: #000000;"/><path d="M0,0 L1,0 L1,1 L0,1 Z " transform="translate(12,13)" style="fill: #000000;"/><path d="M0,0 L1,0 L1,1 L0,1 Z " transform="translate(9,13)" style="fill: #000000;"/><path d="M0,0 L1,0 L1,1 L0,1 Z " transform="translate(6,13)" style="fill: #000000;"/><path d="M0,0 L1,0 L1,1 L0,1 Z " transform="translate(2,13)" style="fill: #000000;"/><path d="M0,0 L1,0 L1,1 L0,1 Z " transform="translate(20,12)" style="fill: #535856;"/><path d="M0,0 L1,0 L1,1 L0,1 Z " transform="translate(2,12)" style="fill: #FF8B8B;"/><path d="M0,0 L1,0 L1,1 L0,1 Z " transform="translate(9,5)" style="fill: #000000;"/><path d="M0,0 L1,0 L1,1 L0,1 Z " transform="translate(5,5)" style="fill: #000000;"/></svg>